<?xml version="1.0" encoding="utf-8"?>
<svg id="svg" version="1.1" width="200" height="200" viewBox="0, 190, 110, 150" xmlns="http://www.w3.org/2000/svg">
  <defs/>
  <g id="svgg">
    <path id="path0" d="M 48.635 200.031 C 48.53 200.199 47.718 202.483 46.829 205.106 C 45.939 207.728 45.056 210.197 44.866 210.592 C 44.676 210.987 44.047 212.684 43.467 214.363 C 42.888 216.041 41.693 219.313 40.812 221.634 C 39.93 223.954 39.293 225.853 39.397 225.853 C 39.501 225.853 39.363 226.12 39.092 226.447 C 38.821 226.773 38.636 227.095 38.68 227.161 C 38.724 227.227 38.687 227.485 38.597 227.734 C 38.508 227.983 38.045 229.318 37.569 230.7 C 37.093 232.083 35.538 236.526 34.115 240.575 C 32.692 244.623 31.142 249.147 30.671 250.628 C 30.2 252.11 29.671 253.645 29.495 254.039 C 28.729 255.761 26.557 261.449 26.445 262.025 C 26.377 262.372 26.119 263.142 25.872 263.734 C 25.625 264.327 25.37 265.054 25.306 265.35 C 25.242 265.646 25.157 265.929 25.117 265.978 C 25.077 266.028 25.025 266.216 25 266.397 C 24.975 266.578 24.834 266.848 24.686 266.996 C 24.538 267.144 24.417 267.47 24.417 267.72 C 24.417 267.971 24.228 268.631 23.998 269.187 C 23.767 269.743 23.552 270.278 23.518 270.377 C 23.484 270.476 23.354 270.799 23.227 271.095 C 23.101 271.391 22.441 273.25 21.761 275.224 C 19.595 281.512 16.259 290.988 15.845 292.027 C 15.625 292.578 15.347 293.423 15.226 293.904 C 14.497 296.808 11.869 301.536 9.904 303.475 C 8.543 304.819 6.073 305.566 2.988 305.566 C 1.542 305.566 0.349 305.687 0.336 305.835 C 0.324 305.983 0.298 308.285 0.279 310.952 L 0.244 315.799 L 19.063 315.978 C 29.413 316.077 38.245 316.099 38.689 316.026 C 39.482 315.897 39.497 315.799 39.497 310.964 L 39.497 306.033 L 35.804 305.824 C 25.842 305.259 24.253 302.845 27.171 292.702 C 28.503 288.07 28.511 288.008 27.881 287.312 C 22.73 281.621 27.855 265.369 38.457 253.774 C 39.918 252.177 41.363 250.452 41.668 249.941 C 42.489 248.566 44.178 244.524 43.931 244.524 C 43.814 244.524 43.919 244.282 44.165 243.986 C 44.411 243.689 44.471 243.445 44.299 243.442 C 44.127 243.439 44.184 243.31 44.425 243.157 C 44.667 243.003 44.914 242.561 44.974 242.175 C 45.034 241.788 45.179 241.311 45.295 241.113 C 45.482 240.794 46.669 237.376 46.915 236.445 C 47.367 234.739 49.122 230.48 49.268 230.735 C 49.371 230.913 49.902 232.433 50.449 234.111 C 50.995 235.79 51.554 237.325 51.69 237.522 C 51.827 237.72 52.24 238.909 52.609 240.165 C 53.562 243.41 53.864 243.482 59.105 241.725 C 61.454 240.938 64.943 239.941 66.86 239.511 C 71.618 238.441 71.683 239.53 65.88 223.16 C 64.55 219.408 62.515 213.591 61.357 210.233 C 60.199 206.876 59.143 203.887 59.011 203.591 C 58.878 203.294 58.749 202.971 58.723 202.873 C 58.33 201.351 57.654 200.017 57.183 199.836 C 56.313 199.502 48.856 199.672 48.635 200.031 M 79.231 265.44 C 78.958 265.884 77.886 267.753 76.849 269.592 C 74.404 273.931 71.384 277.94 68.621 280.513 C 66.772 282.235 66.474 282.674 66.79 283.206 C 66.998 283.556 68.047 286.427 69.122 289.587 C 70.197 292.747 71.562 296.706 72.155 298.384 C 74.493 304.997 73.949 305.619 65.574 305.906 L 59.785 306.104 L 59.685 311.221 L 59.585 316.338 L 73.509 316.362 C 81.167 316.376 90.583 316.461 94.434 316.551 C 98.285 316.641 102.285 316.619 103.321 316.5 L 105.206 316.286 L 105.206 311.315 L 105.206 306.345 L 102.424 306.121 C 95.426 305.556 95.001 305.168 91.994 296.589 C 91.198 294.318 89.702 290.036 88.67 287.074 C 87.638 284.111 86.432 280.88 85.991 279.892 C 85.55 278.905 84.165 275.067 82.913 271.364 C 80.613 264.56 80.192 263.882 79.231 265.44" stroke="none" fill="#282b2a" fill-rule="evenodd"/>
    <path id="path2" d="M84.381 235.916 C 82.504 236.268,80.969 236.581,80.969 236.610 C 80.969 236.640,80.081 236.735,78.995 236.822 C 77.908 236.909,75.889 237.237,74.506 237.550 C 73.124 237.864,71.629 238.109,71.185 238.095 C 70.741 238.081,70.377 238.222,70.377 238.408 C 70.377 238.594,69.810 238.853,69.117 238.983 C 68.231 239.149,67.805 239.447,67.683 239.987 C 67.587 240.409,66.931 243.905,66.224 247.756 C 65.019 254.323,64.605 255.748,64.061 255.204 C 63.938 255.081,64.420 251.848,65.132 248.019 C 65.845 244.191,66.427 240.718,66.427 240.303 L 66.427 239.548 63.226 240.425 C 61.465 240.907,58.931 241.714,57.593 242.217 C 56.256 242.720,54.812 243.044,54.385 242.937 C 53.957 242.830,53.489 242.860,53.345 243.005 C 53.200 243.149,52.974 243.281,52.843 243.299 C 50.670 243.580,44.373 247.234,42.278 249.429 C 39.577 252.258,38.488 253.748,38.777 254.216 C 38.950 254.495,39.037 254.812,38.971 254.920 C 38.905 255.028,37.777 261.014,36.465 268.223 C 35.153 275.431,33.995 281.611,33.891 281.957 C 33.788 282.303,33.858 282.585,34.046 282.585 C 34.500 282.585,47.017 272.037,47.772 271.017 C 47.879 270.872,48.580 267.316,49.329 263.115 C 51.980 248.248,52.563 245.601,53.184 245.601 C 53.584 245.601,53.505 246.122,51.138 259.057 C 50.091 264.780,49.288 269.516,49.355 269.582 C 49.545 269.772,63.914 257.402,63.914 257.048 C 63.914 256.875,64.237 256.732,64.632 256.732 C 65.035 256.732,65.350 256.972,65.350 257.278 C 65.350 257.653,65.603 257.772,66.158 257.659 C 67.839 257.317,76.398 257.141,78.636 257.402 L 80.969 257.674 78.995 257.939 C 77.908 258.085,74.099 258.244,70.528 258.292 L 64.037 258.380 57.243 264.218 C 48.974 271.322,49.179 270.881,54.264 270.609 C 56.510 270.489,62.485 270.288,67.542 270.162 L 76.735 269.933 78.084 267.436 C 78.826 266.062,79.643 264.858,79.899 264.759 C 80.156 264.661,80.464 264.189,80.584 263.712 C 80.704 263.235,81.266 261.833,81.832 260.596 C 83.617 256.705,84.022 255.737,84.022 255.361 C 84.022 255.160,84.257 254.538,84.545 253.979 C 86.026 251.100,90.485 238.069,90.485 236.619 C 90.485 235.058,89.532 234.948,84.381 235.916 M86.161 239.344 C 85.281 240.248,83.793 241.554,82.855 242.248 C 80.684 243.852,80.711 244.155,83.034 244.208 C 88.146 244.323,86.760 245.242,81.474 245.242 L 79.387 245.242 75.331 248.720 C 73.100 250.632,70.514 252.894,69.585 253.747 C 68.089 255.117,66.516 255.832,66.846 254.991 C 66.912 254.823,69.134 252.844,71.784 250.592 C 74.434 248.341,77.076 246.093,77.655 245.596 C 78.450 244.914,78.920 243.945,79.572 241.646 L 80.435 238.600 80.236 240.844 C 79.991 243.600,80.228 243.649,82.697 241.360 C 86.521 237.813,89.136 236.292,86.161 239.344 M36.129 256.411 C 28.585 265.170,24.309 278.106,26.686 284.981 C 27.664 287.809,27.949 287.888,30.280 285.969 C 32.692 283.983,32.110 285.953,35.185 269.350 C 38.030 253.986,38.013 254.224,36.129 256.411 M57.896 271.489 L 48.466 271.770 44.961 274.754 C 33.208 284.758,33.732 284.110,37.612 283.858 C 43.059 283.504,57.309 283.342,59.605 283.608 L 61.939 283.878 58.348 284.148 C 56.373 284.296,49.873 284.557,43.902 284.727 L 33.047 285.036 30.906 286.414 C 24.483 290.547,36.303 294.763,47.032 292.166 C 51.867 290.995,62.603 286.146,63.839 284.573 C 64.233 284.072,64.750 283.662,64.988 283.662 C 66.186 283.662,75.763 272.778,75.763 271.416 C 75.763 271.058,71.808 271.075,57.896 271.489 " stroke="none" fill="#059c5c" fill-rule="evenodd"/>
  </g>
</svg>