<svg id="svg" version="1.1" xmlns="http://www.w3.org/2000/svg" xmlns:xlink="http://www.w3.org/1999/xlink" width="400" height="200" viewBox="0, 180, 400, 200"><g id="svgg"><path id="path0" d="M140.131 165.069 C 140.676 165.152,141.484 165.149,141.926 165.064 C 142.368 164.979,141.921 164.911,140.934 164.914 C 139.946 164.917,139.585 164.987,140.131 165.069 M48.635 200.031 C 48.530 200.199,47.718 202.483,46.829 205.106 C 45.939 207.728,45.056 210.197,44.866 210.592 C 44.676 210.987,44.047 212.684,43.467 214.363 C 42.888 216.041,41.693 219.313,40.812 221.634 C 39.930 223.954,39.293 225.853,39.397 225.853 C 39.501 225.853,39.363 226.120,39.092 226.447 C 38.821 226.773,38.636 227.095,38.680 227.161 C 38.724 227.227,38.687 227.485,38.597 227.734 C 38.508 227.983,38.045 229.318,37.569 230.700 C 37.093 232.083,35.538 236.526,34.115 240.575 C 32.692 244.623,31.142 249.147,30.671 250.628 C 30.200 252.110,29.671 253.645,29.495 254.039 C 28.729 255.761,26.557 261.449,26.445 262.025 C 26.377 262.372,26.119 263.142,25.872 263.734 C 25.625 264.327,25.370 265.054,25.306 265.350 C 25.242 265.646,25.157 265.929,25.117 265.978 C 25.077 266.028,25.025 266.216,25.000 266.397 C 24.975 266.578,24.834 266.848,24.686 266.996 C 24.538 267.144,24.417 267.470,24.417 267.720 C 24.417 267.971,24.228 268.631,23.998 269.187 C 23.767 269.743,23.552 270.278,23.518 270.377 C 23.484 270.476,23.354 270.799,23.227 271.095 C 23.101 271.391,22.441 273.250,21.761 275.224 C 19.595 281.512,16.259 290.988,15.845 292.027 C 15.625 292.578,15.347 293.423,15.226 293.904 C 14.497 296.808,11.869 301.536,9.904 303.475 C 8.543 304.819,6.073 305.566,2.988 305.566 C 1.542 305.566,0.349 305.687,0.336 305.835 C 0.324 305.983,0.298 308.285,0.279 310.952 L 0.244 315.799 19.063 315.978 C 29.413 316.077,38.245 316.099,38.689 316.026 C 39.482 315.897,39.497 315.799,39.497 310.964 L 39.497 306.033 35.804 305.824 C 25.842 305.259,24.253 302.845,27.171 292.702 C 28.503 288.070,28.511 288.008,27.881 287.312 C 22.730 281.621,27.855 265.369,38.457 253.774 C 39.918 252.177,41.363 250.452,41.668 249.941 C 42.489 248.566,44.178 244.524,43.931 244.524 C 43.814 244.524,43.919 244.282,44.165 243.986 C 44.411 243.689,44.471 243.445,44.299 243.442 C 44.127 243.439,44.184 243.310,44.425 243.157 C 44.667 243.003,44.914 242.561,44.974 242.175 C 45.034 241.788,45.179 241.311,45.295 241.113 C 45.482 240.794,46.669 237.376,46.915 236.445 C 47.367 234.739,49.122 230.480,49.268 230.735 C 49.371 230.913,49.902 232.433,50.449 234.111 C 50.995 235.790,51.554 237.325,51.690 237.522 C 51.827 237.720,52.240 238.909,52.609 240.165 C 53.562 243.410,53.864 243.482,59.105 241.725 C 61.454 240.938,64.943 239.941,66.860 239.511 C 71.618 238.441,71.683 239.530,65.880 223.160 C 64.550 219.408,62.515 213.591,61.357 210.233 C 60.199 206.876,59.143 203.887,59.011 203.591 C 58.878 203.294,58.749 202.971,58.723 202.873 C 58.330 201.351,57.654 200.017,57.183 199.836 C 56.313 199.502,48.856 199.672,48.635 200.031 M94.636 227.613 C 94.525 227.792,94.400 229.659,94.358 231.764 C 94.266 236.347,94.180 236.253,98.420 236.260 C 105.080 236.272,104.531 233.452,104.474 267.380 C 104.422 297.627,104.390 297.030,106.402 302.894 C 108.804 309.896,111.846 313.083,119.589 316.712 C 128.161 320.731,144.974 318.659,151.267 312.809 C 158.883 305.729,160.069 298.339,160.123 257.630 C 160.151 236.523,160.027 236.967,165.965 236.694 C 170.315 236.495,170.197 236.631,170.197 231.789 L 170.197 227.760 165.081 227.526 C 157.875 227.196,141.025 227.242,140.472 227.593 C 140.131 227.810,140.038 228.947,140.113 231.986 L 140.215 236.086 143.390 236.351 C 151.324 237.011,150.604 234.525,150.744 261.743 C 150.944 300.626,149.675 306.184,140.036 308.648 C 131.470 310.837,123.828 307.161,121.394 299.680 C 119.910 295.120,119.519 276.594,120.264 246.062 C 120.513 235.843,120.135 236.518,125.742 236.266 C 129.389 236.102,129.746 236.024,129.847 235.368 C 130.324 232.269,130.398 228.329,129.989 227.836 C 129.466 227.205,95.022 226.988,94.636 227.613 M170.788 228.437 C 170.385 229.942,170.556 235.338,171.027 235.956 C 171.388 236.430,172.323 236.570,175.850 236.674 C 179.456 236.781,180.339 236.917,180.867 237.445 C 181.673 238.251,181.882 257.964,181.401 287.756 L 181.093 306.751 180.273 307.415 C 179.585 307.973,178.809 308.079,175.433 308.079 C 170.054 308.079,170.143 307.998,170.274 312.752 L 170.377 316.517 175.224 316.744 C 177.890 316.869,186.495 316.990,194.345 317.013 L 208.618 317.056 208.618 312.793 L 208.618 308.530 203.680 308.352 C 195.743 308.065,196.481 310.418,196.679 286.033 L 196.768 274.939 200.987 275.148 C 212.275 275.708,214.158 278.694,215.978 298.923 C 217.072 311.086,219.062 315.634,224.405 318.187 C 227.731 319.775,236.382 319.401,238.193 317.591 C 238.487 317.296,238.844 317.056,238.987 317.056 C 239.471 317.056,241.739 314.490,242.582 312.988 C 244.853 308.943,245.601 305.596,245.601 299.493 L 245.601 295.185 244.434 294.969 C 243.793 294.850,242.056 294.802,240.575 294.863 L 237.882 294.973 237.489 298.923 C 236.236 311.549,234.398 310.336,231.232 294.794 C 229.509 286.334,229.406 285.909,228.362 282.890 C 227.334 279.917,224.065 275.282,221.830 273.628 L 220.149 272.383 222.932 271.450 C 227.626 269.875,233.752 265.896,233.752 264.422 C 233.752 264.142,233.892 263.914,234.062 263.914 C 234.233 263.914,234.958 262.742,235.675 261.311 C 241.875 248.922,236.782 233.929,224.962 229.775 C 219.688 227.921,218.984 227.874,194.212 227.738 L 171.009 227.610 170.788 228.437 M251.346 228.007 L 244.345 228.187 244.271 232.195 C 244.181 237.067,244.004 236.883,248.911 237.040 C 254.674 237.225,254.036 233.525,254.057 266.890 C 254.078 300.165,254.013 299.462,257.742 306.822 C 262.207 315.638,268.868 319.006,281.867 319.021 C 297.807 319.040,304.540 314.319,308.066 300.650 C 309.306 295.844,309.495 292.046,309.734 267.145 C 310.035 235.853,309.631 237.723,316.181 237.355 C 320.349 237.121,320.275 237.214,320.282 232.280 L 320.287 228.474 317.000 228.240 C 315.193 228.112,308.401 228.007,301.909 228.007 L 290.104 228.007 290.204 232.406 L 290.305 236.804 293.710 237.103 C 301.050 237.749,300.692 236.853,300.827 254.908 C 301.161 299.591,299.580 307.182,289.452 309.522 C 280.003 311.705,272.260 306.767,270.299 297.307 C 269.451 293.217,269.455 240.113,270.303 238.548 C 270.911 237.427,272.579 236.984,276.187 236.984 C 278.887 236.984,279.416 236.887,279.634 236.355 C 279.932 235.630,279.988 228.522,279.698 228.232 C 279.419 227.953,259.594 227.796,251.346 228.007 M324.686 228.260 L 322.801 228.404 322.801 232.687 C 322.801 237.663,322.387 237.250,327.541 237.420 C 332.060 237.568,331.612 233.992,331.499 269.051 C 331.367 309.884,331.544 308.876,324.375 309.418 L 321.724 309.619 321.724 313.476 L 321.724 317.333 331.508 317.581 C 336.890 317.717,343.151 317.775,345.422 317.711 L 349.551 317.594 349.551 313.645 L 349.551 309.695 347.935 309.604 C 342.340 309.288,340.742 307.408,340.231 300.541 C 339.927 296.450,340.437 247.292,340.780 247.652 C 340.928 247.808,341.724 249.551,342.548 251.526 C 343.372 253.501,344.252 255.601,344.503 256.194 C 345.202 257.844,346.793 261.998,351.377 274.147 C 356.455 287.604,355.446 286.222,360.107 286.098 L 363.914 285.996 365.830 280.610 C 366.885 277.648,367.892 274.901,368.069 274.506 C 368.246 274.111,369.025 272.011,369.799 269.838 C 371.196 265.920,374.937 256.137,375.565 254.758 C 375.745 254.363,376.088 253.393,376.326 252.603 C 376.564 251.813,377.046 250.521,377.396 249.731 C 377.745 248.941,378.109 248.052,378.204 247.756 C 378.533 246.725,378.449 305.024,378.120 306.424 C 377.586 308.692,377.122 308.933,372.980 309.097 C 370.794 309.183,369.193 309.407,369.036 309.648 C 368.682 310.193,368.698 316.759,369.055 317.321 C 369.348 317.783,399.131 318.045,399.586 317.589 C 399.824 317.351,399.712 309.825,399.467 309.580 C 399.379 309.493,398.130 309.353,396.691 309.269 C 391.213 308.949,391.643 311.148,391.959 285.032 C 392.101 273.318,392.232 258.126,392.249 251.271 C 392.286 236.599,391.913 237.766,396.589 237.673 L 399.820 237.610 399.942 233.078 L 400.063 228.546 388.093 228.546 L 376.122 228.546 374.837 232.316 C 374.130 234.390,373.364 236.538,373.134 237.089 C 372.905 237.641,372.610 238.530,372.480 239.064 C 372.350 239.599,371.796 241.022,371.249 242.228 C 370.701 243.434,369.508 246.504,368.597 249.050 C 367.686 251.597,366.799 254.004,366.626 254.399 C 366.295 255.152,362.902 264.944,362.489 266.338 C 362.069 267.756,361.785 267.273,359.121 260.592 C 357.683 256.988,356.275 253.611,355.991 253.086 C 355.708 252.562,355.476 251.940,355.476 251.704 C 355.476 251.469,355.247 250.766,354.968 250.144 C 354.689 249.522,353.887 247.478,353.186 245.601 C 349.225 235.002,346.841 228.924,346.517 228.600 C 346.152 228.235,328.598 227.962,324.686 228.260 M212.426 237.026 C 213.590 237.244,214.704 237.453,214.901 237.490 C 215.099 237.527,215.624 237.757,216.068 238.001 C 216.513 238.245,216.876 238.332,216.876 238.194 C 216.876 237.263,220.121 241.452,220.806 243.268 C 221.758 245.790,222.366 254.578,221.589 254.578 C 221.336 254.578,221.250 254.897,221.371 255.386 C 222.397 259.541,217.495 264.586,211.131 265.925 C 208.596 266.458,197.790 266.852,197.366 266.426 C 196.960 266.018,196.993 237.693,197.401 237.285 C 198.436 236.250,207.453 236.095,212.426 237.026 M79.231 265.440 C 78.958 265.884,77.886 267.753,76.849 269.592 C 74.404 273.931,71.384 277.940,68.621 280.513 C 66.772 282.235,66.474 282.674,66.790 283.206 C 66.998 283.556,68.047 286.427,69.122 289.587 C 70.197 292.747,71.562 296.706,72.155 298.384 C 74.493 304.997,73.949 305.619,65.574 305.906 L 59.785 306.104 59.685 311.221 L 59.585 316.338 73.509 316.362 C 81.167 316.376,90.583 316.461,94.434 316.551 C 98.285 316.641,102.285 316.619,103.321 316.500 L 105.206 316.286 105.206 311.315 L 105.206 306.345 102.424 306.121 C 95.426 305.556,95.001 305.168,91.994 296.589 C 91.198 294.318,89.702 290.036,88.670 287.074 C 87.638 284.111,86.432 280.880,85.991 279.892 C 85.550 278.905,84.165 275.067,82.913 271.364 C 80.613 264.560,80.192 263.882,79.231 265.440 M0.718 332.855" stroke="none" fill="#ffffff" fill-rule="evenodd"></path><path id="path2" d="M84.381 235.916 C 82.504 236.268,80.969 236.581,80.969 236.610 C 80.969 236.640,80.081 236.735,78.995 236.822 C 77.908 236.909,75.889 237.237,74.506 237.550 C 73.124 237.864,71.629 238.109,71.185 238.095 C 70.741 238.081,70.377 238.222,70.377 238.408 C 70.377 238.594,69.810 238.853,69.117 238.983 C 68.231 239.149,67.805 239.447,67.683 239.987 C 67.587 240.409,66.931 243.905,66.224 247.756 C 65.019 254.323,64.605 255.748,64.061 255.204 C 63.938 255.081,64.420 251.848,65.132 248.019 C 65.845 244.191,66.427 240.718,66.427 240.303 L 66.427 239.548 63.226 240.425 C 61.465 240.907,58.931 241.714,57.593 242.217 C 56.256 242.720,54.812 243.044,54.385 242.937 C 53.957 242.830,53.489 242.860,53.345 243.005 C 53.200 243.149,52.974 243.281,52.843 243.299 C 50.670 243.580,44.373 247.234,42.278 249.429 C 39.577 252.258,38.488 253.748,38.777 254.216 C 38.950 254.495,39.037 254.812,38.971 254.920 C 38.905 255.028,37.777 261.014,36.465 268.223 C 35.153 275.431,33.995 281.611,33.891 281.957 C 33.788 282.303,33.858 282.585,34.046 282.585 C 34.500 282.585,47.017 272.037,47.772 271.017 C 47.879 270.872,48.580 267.316,49.329 263.115 C 51.980 248.248,52.563 245.601,53.184 245.601 C 53.584 245.601,53.505 246.122,51.138 259.057 C 50.091 264.780,49.288 269.516,49.355 269.582 C 49.545 269.772,63.914 257.402,63.914 257.048 C 63.914 256.875,64.237 256.732,64.632 256.732 C 65.035 256.732,65.350 256.972,65.350 257.278 C 65.350 257.653,65.603 257.772,66.158 257.659 C 67.839 257.317,76.398 257.141,78.636 257.402 L 80.969 257.674 78.995 257.939 C 77.908 258.085,74.099 258.244,70.528 258.292 L 64.037 258.380 57.243 264.218 C 48.974 271.322,49.179 270.881,54.264 270.609 C 56.510 270.489,62.485 270.288,67.542 270.162 L 76.735 269.933 78.084 267.436 C 78.826 266.062,79.643 264.858,79.899 264.759 C 80.156 264.661,80.464 264.189,80.584 263.712 C 80.704 263.235,81.266 261.833,81.832 260.596 C 83.617 256.705,84.022 255.737,84.022 255.361 C 84.022 255.160,84.257 254.538,84.545 253.979 C 86.026 251.100,90.485 238.069,90.485 236.619 C 90.485 235.058,89.532 234.948,84.381 235.916 M86.161 239.344 C 85.281 240.248,83.793 241.554,82.855 242.248 C 80.684 243.852,80.711 244.155,83.034 244.208 C 88.146 244.323,86.760 245.242,81.474 245.242 L 79.387 245.242 75.331 248.720 C 73.100 250.632,70.514 252.894,69.585 253.747 C 68.089 255.117,66.516 255.832,66.846 254.991 C 66.912 254.823,69.134 252.844,71.784 250.592 C 74.434 248.341,77.076 246.093,77.655 245.596 C 78.450 244.914,78.920 243.945,79.572 241.646 L 80.435 238.600 80.236 240.844 C 79.991 243.600,80.228 243.649,82.697 241.360 C 86.521 237.813,89.136 236.292,86.161 239.344 M36.129 256.411 C 28.585 265.170,24.309 278.106,26.686 284.981 C 27.664 287.809,27.949 287.888,30.280 285.969 C 32.692 283.983,32.110 285.953,35.185 269.350 C 38.030 253.986,38.013 254.224,36.129 256.411 M57.896 271.489 L 48.466 271.770 44.961 274.754 C 33.208 284.758,33.732 284.110,37.612 283.858 C 43.059 283.504,57.309 283.342,59.605 283.608 L 61.939 283.878 58.348 284.148 C 56.373 284.296,49.873 284.557,43.902 284.727 L 33.047 285.036 30.906 286.414 C 24.483 290.547,36.303 294.763,47.032 292.166 C 51.867 290.995,62.603 286.146,63.839 284.573 C 64.233 284.072,64.750 283.662,64.988 283.662 C 66.186 283.662,75.763 272.778,75.763 271.416 C 75.763 271.058,71.808 271.075,57.896 271.489 " stroke="none" fill="#059c5c" fill-rule="evenodd"></path></g></svg>