<svg id="svg" version="1.1" xmlns="http://www.w3.org/2000/svg" xmlns:xlink="http://www.w3.org/1999/xlink" width="400" height="200" viewBox="0, 180, 400, 200"><g id="svgg"><path id="path0" d="M140.131 165.069 C 140.676 165.152,141.484 165.149,141.926 165.064 C 142.368 164.979,141.921 164.911,140.934 164.914 C 139.946 164.917,139.585 164.987,140.131 165.069 M48.635 200.031 C 48.530 200.199,47.718 202.483,46.829 205.106 C 45.939 207.728,45.056 210.197,44.866 210.592 C 44.676 210.987,44.047 212.684,43.467 214.363 C 42.888 216.041,41.693 219.313,40.812 221.634 C 39.930 223.954,39.293 225.853,39.397 225.853 C 39.501 225.853,39.363 226.120,39.092 226.447 C 38.821 226.773,38.636 227.095,38.680 227.161 C 38.724 227.227,38.687 227.485,38.597 227.734 C 38.508 227.983,38.045 229.318,37.569 230.700 C 37.093 232.083,35.538 236.526,34.115 240.575 C 32.692 244.623,31.142 249.147,30.671 250.628 C 30.200 252.110,29.671 253.645,29.495 254.039 C 28.729 255.761,26.557 261.449,26.445 262.025 C 26.377 262.372,26.119 263.142,25.872 263.734 C 25.625 264.327,25.370 265.054,25.306 265.350 C 25.242 265.646,25.157 265.929,25.117 265.978 C 25.077 266.028,25.025 266.216,25.000 266.397 C 24.975 266.578,24.834 266.848,24.686 266.996 C 24.538 267.144,24.417 267.470,24.417 267.720 C 24.417 267.971,24.228 268.631,23.998 269.187 C 23.767 269.743,23.552 270.278,23.518 270.377 C 23.484 270.476,23.354 270.799,23.227 271.095 C 23.101 271.391,22.441 273.250,21.761 275.224 C 19.595 281.512,16.259 290.988,15.845 292.027 C 15.625 292.578,15.347 293.423,15.226 293.904 C 14.497 296.808,11.869 301.536,9.904 303.475 C 8.543 304.819,6.073 305.566,2.988 305.566 C 1.542 305.566,0.349 305.687,0.336 305.835 C 0.324 305.983,0.298 308.285,0.279 310.952 L 0.244 315.799 19.063 315.978 C 29.413 316.077,38.245 316.099,38.689 316.026 C 39.482 315.897,39.497 315.799,39.497 310.964 L 39.497 306.033 35.804 305.824 C 25.842 305.259,24.253 302.845,27.171 292.702 C 28.503 288.070,28.511 288.008,27.881 287.312 C 22.730 281.621,27.855 265.369,38.457 253.774 C 39.918 252.177,41.363 250.452,41.668 249.941 C 42.489 248.566,44.178 244.524,43.931 244.524 C 43.814 244.524,43.919 244.282,44.165 243.986 C 44.411 243.689,44.471 243.445,44.299 243.442 C 44.127 243.439,44.184 243.310,44.425 243.157 C 44.667 243.003,44.914 242.561,44.974 242.175 C 45.034 241.788,45.179 241.311,45.295 241.113 C 45.482 240.794,46.669 237.376,46.915 236.445 C 47.367 234.739,49.122 230.480,49.268 230.735 C 49.371 230.913,49.902 232.433,50.449 234.111 C 50.995 235.790,51.554 237.325,51.690 237.522 C 51.827 237.720,52.240 238.909,52.609 240.165 C 53.562 243.410,53.864 243.482,59.105 241.725 C 61.454 240.938,64.943 239.941,66.860 239.511 C 71.618 238.441,71.683 239.530,65.880 223.160 C 64.550 219.408,62.515 213.591,61.357 210.233 C 60.199 206.876,59.143 203.887,59.011 203.591 C 58.878 203.294,58.749 202.971,58.723 202.873 C 58.330 201.351,57.654 200.017,57.183 199.836 C 56.313 199.502,48.856 199.672,48.635 200.031 M94.636 227.613 C 94.525 227.792,94.400 229.659,94.358 231.764 C 94.266 236.347,94.180 236.253,98.420 236.260 C 105.080 236.272,104.531 233.452,104.474 267.380 C 104.422 297.627,104.390 297.030,106.402 302.894 C 108.804 309.896,111.846 313.083,119.589 316.712 C 128.161 320.731,144.974 318.659,151.267 312.809 C 158.883 305.729,160.069 298.339,160.123 257.630 C 160.151 236.523,160.027 236.967,165.965 236.694 C 170.315 236.495,170.197 236.631,170.197 231.789 L 170.197 227.760 165.081 227.526 C 157.875 227.196,141.025 227.242,140.472 227.593 C 140.131 227.810,140.038 228.947,140.113 231.986 L 140.215 236.086 143.390 236.351 C 151.324 237.011,150.604 234.525,150.744 261.743 C 150.944 300.626,149.675 306.184,140.036 308.648 C 131.470 310.837,123.828 307.161,121.394 299.680 C 119.910 295.120,119.519 276.594,120.264 246.062 C 120.513 235.843,120.135 236.518,125.742 236.266 C 129.389 236.102,129.746 236.024,129.847 235.368 C 130.324 232.269,130.398 228.329,129.989 227.836 C 129.466 227.205,95.022 226.988,94.636 227.613 M170.788 228.437 C 170.385 229.942,170.556 235.338,171.027 235.956 C 171.388 236.430,172.323 236.570,175.850 236.674 C 179.456 236.781,180.339 236.917,180.867 237.445 C 181.673 238.251,181.882 257.964,181.401 287.756 L 181.093 306.751 180.273 307.415 C 179.585 307.973,178.809 308.079,175.433 308.079 C 170.054 308.079,170.143 307.998,170.274 312.752 L 170.377 316.517 175.224 316.744 C 177.890 316.869,186.495 316.990,194.345 317.013 L 208.618 317.056 208.618 312.793 L 208.618 308.530 203.680 308.352 C 195.743 308.065,196.481 310.418,196.679 286.033 L 196.768 274.939 200.987 275.148 C 212.275 275.708,214.158 278.694,215.978 298.923 C 217.072 311.086,219.062 315.634,224.405 318.187 C 227.731 319.775,236.382 319.401,238.193 317.591 C 238.487 317.296,238.844 317.056,238.987 317.056 C 239.471 317.056,241.739 314.490,242.582 312.988 C 244.853 308.943,245.601 305.596,245.601 299.493 L 245.601 295.185 244.434 294.969 C 243.793 294.850,242.056 294.802,240.575 294.863 L 237.882 294.973 237.489 298.923 C 236.236 311.549,234.398 310.336,231.232 294.794 C 229.509 286.334,229.406 285.909,228.362 282.890 C 227.334 279.917,224.065 275.282,221.830 273.628 L 220.149 272.383 222.932 271.450 C 227.626 269.875,233.752 265.896,233.752 264.422 C 233.752 264.142,233.892 263.914,234.062 263.914 C 234.233 263.914,234.958 262.742,235.675 261.311 C 241.875 248.922,236.782 233.929,224.962 229.775 C 219.688 227.921,218.984 227.874,194.212 227.738 L 171.009 227.610 170.788 228.437 M251.346 228.007 L 244.345 228.187 244.271 232.195 C 244.181 237.067,244.004 236.883,248.911 237.040 C 254.674 237.225,254.036 233.525,254.057 266.890 C 254.078 300.165,254.013 299.462,257.742 306.822 C 262.207 315.638,268.868 319.006,281.867 319.021 C 297.807 319.040,304.540 314.319,308.066 300.650 C 309.306 295.844,309.495 292.046,309.734 267.145 C 310.035 235.853,309.631 237.723,316.181 237.355 C 320.349 237.121,320.275 237.214,320.282 232.280 L 320.287 228.474 317.000 228.240 C 315.193 228.112,308.401 228.007,301.909 228.007 L 290.104 228.007 290.204 232.406 L 290.305 236.804 293.710 237.103 C 301.050 237.749,300.692 236.853,300.827 254.908 C 301.161 299.591,299.580 307.182,289.452 309.522 C 280.003 311.705,272.260 306.767,270.299 297.307 C 269.451 293.217,269.455 240.113,270.303 238.548 C 270.911 237.427,272.579 236.984,276.187 236.984 C 278.887 236.984,279.416 236.887,279.634 236.355 C 279.932 235.630,279.988 228.522,279.698 228.232 C 279.419 227.953,259.594 227.796,251.346 228.007 M324.686 228.260 L 322.801 228.404 322.801 232.687 C 322.801 237.663,322.387 237.250,327.541 237.420 C 332.060 237.568,331.612 233.992,331.499 269.051 C 331.367 309.884,331.544 308.876,324.375 309.418 L 321.724 309.619 321.724 313.476 L 321.724 317.333 331.508 317.581 C 336.890 317.717,343.151 317.775,345.422 317.711 L 349.551 317.594 349.551 313.645 L 349.551 309.695 347.935 309.604 C 342.340 309.288,340.742 307.408,340.231 300.541 C 339.927 296.450,340.437 247.292,340.780 247.652 C 340.928 247.808,341.724 249.551,342.548 251.526 C 343.372 253.501,344.252 255.601,344.503 256.194 C 345.202 257.844,346.793 261.998,351.377 274.147 C 356.455 287.604,355.446 286.222,360.107 286.098 L 363.914 285.996 365.830 280.610 C 366.885 277.648,367.892 274.901,368.069 274.506 C 368.246 274.111,369.025 272.011,369.799 269.838 C 371.196 265.920,374.937 256.137,375.565 254.758 C 375.745 254.363,376.088 253.393,376.326 252.603 C 376.564 251.813,377.046 250.521,377.396 249.731 C 377.745 248.941,378.109 248.052,378.204 247.756 C 378.533 246.725,378.449 305.024,378.120 306.424 C 377.586 308.692,377.122 308.933,372.980 309.097 C 370.794 309.183,369.193 309.407,369.036 309.648 C 368.682 310.193,368.698 316.759,369.055 317.321 C 369.348 317.783,399.131 318.045,399.586 317.589 C 399.824 317.351,399.712 309.825,399.467 309.580 C 399.379 309.493,398.130 309.353,396.691 309.269 C 391.213 308.949,391.643 311.148,391.959 285.032 C 392.101 273.318,392.232 258.126,392.249 251.271 C 392.286 236.599,391.913 237.766,396.589 237.673 L 399.820 237.610 399.942 233.078 L 400.063 228.546 388.093 228.546 L 376.122 228.546 374.837 232.316 C 374.130 234.390,373.364 236.538,373.134 237.089 C 372.905 237.641,372.610 238.530,372.480 239.064 C 372.350 239.599,371.796 241.022,371.249 242.228 C 370.701 243.434,369.508 246.504,368.597 249.050 C 367.686 251.597,366.799 254.004,366.626 254.399 C 366.295 255.152,362.902 264.944,362.489 266.338 C 362.069 267.756,361.785 267.273,359.121 260.592 C 357.683 256.988,356.275 253.611,355.991 253.086 C 355.708 252.562,355.476 251.940,355.476 251.704 C 355.476 251.469,355.247 250.766,354.968 250.144 C 354.689 249.522,353.887 247.478,353.186 245.601 C 349.225 235.002,346.841 228.924,346.517 228.600 C 346.152 228.235,328.598 227.962,324.686 228.260 M212.426 237.026 C 213.590 237.244,214.704 237.453,214.901 237.490 C 215.099 237.527,215.624 237.757,216.068 238.001 C 216.513 238.245,216.876 238.332,216.876 238.194 C 216.876 237.263,220.121 241.452,220.806 243.268 C 221.758 245.790,222.366 254.578,221.589 254.578 C 221.336 254.578,221.250 254.897,221.371 255.386 C 222.397 259.541,217.495 264.586,211.131 265.925 C 208.596 266.458,197.790 266.852,197.366 266.426 C 196.960 266.018,196.993 237.693,197.401 237.285 C 198.436 236.250,207.453 236.095,212.426 237.026 M79.231 265.440 C 78.958 265.884,77.886 267.753,76.849 269.592 C 74.404 273.931,71.384 277.940,68.621 280.513 C 66.772 282.235,66.474 282.674,66.790 283.206 C 66.998 283.556,68.047 286.427,69.122 289.587 C 70.197 292.747,71.562 296.706,72.155 298.384 C 74.493 304.997,73.949 305.619,65.574 305.906 L 59.785 306.104 59.685 311.221 L 59.585 316.338 73.509 316.362 C 81.167 316.376,90.583 316.461,94.434 316.551 C 98.285 316.641,102.285 316.619,103.321 316.500 L 105.206 316.286 105.206 311.315 L 105.206 306.345 102.424 306.121 C 95.426 305.556,95.001 305.168,91.994 296.589 C 91.198 294.318,89.702 290.036,88.670 287.074 C 87.638 284.111,86.432 280.880,85.991 279.892 C 85.550 278.905,84.165 275.067,82.913 271.364 C 80.613 264.560,80.192 263.882,79.231 265.440 M0.718 332.855 L 0.718 335.009 2.032 335.009 L 3.345 335.009 3.097 343.882 C 2.839 353.116,2.779 353.418,1.257 353.230 C 0.623 353.152,0.539 353.352,0.539 354.937 L 0.539 356.732 5.117 356.833 L 9.695 356.933 9.695 355.127 C 9.695 353.455,9.631 353.321,8.823 353.321 C 6.981 353.321,6.822 352.730,6.822 345.875 C 6.822 342.400,6.884 339.624,6.960 339.707 C 7.036 339.789,7.854 341.634,8.777 343.806 C 10.759 348.471,10.756 348.466,12.465 348.351 C 14.097 348.241,13.738 348.680,15.633 344.479 L 17.232 340.934 17.233 346.925 L 17.235 352.917 16.068 353.029 C 14.933 353.139,14.898 353.192,14.794 354.997 C 14.661 357.295,13.720 357.115,25.211 356.990 L 34.509 356.889 34.400 355.204 C 34.291 353.528,34.284 353.519,32.733 353.214 C 30.205 352.717,31.503 349.084,34.057 349.506 C 34.778 349.625,36.272 349.725,37.376 349.727 C 39.377 349.731,39.385 349.735,39.823 351.077 C 40.064 351.818,40.343 352.616,40.441 352.851 C 40.560 353.134,40.098 353.315,39.071 353.389 C 37.280 353.518,36.521 355.782,37.924 356.808 C 38.802 357.450,57.816 357.480,58.456 356.840 C 59.770 355.526,58.793 353.321,56.895 353.321 C 55.531 353.321,55.296 352.313,55.296 346.447 L 55.296 340.962 56.388 342.564 C 56.989 343.445,58.458 345.943,59.653 348.115 C 60.848 350.287,62.569 353.317,63.477 354.847 L 65.128 357.630 67.214 357.630 L 69.300 357.630 69.300 347.106 C 69.300 334.453,69.067 335.108,73.495 335.302 L 74.998 335.368 75.111 343.896 L 75.224 352.424 76.248 354.166 C 77.739 356.701,80.072 357.712,84.403 357.698 C 92.245 357.674,93.708 355.229,93.714 342.139 C 93.717 334.914,93.493 335.365,97.067 335.374 C 100.401 335.382,100.206 334.791,100.096 344.550 L 100.000 353.142 98.384 353.331 C 96.245 353.581,95.870 353.865,95.876 355.228 C 95.887 357.461,95.516 357.369,104.239 357.312 L 110.632 357.271 110.522 355.566 L 110.413 353.860 108.348 353.533 L 106.284 353.205 106.284 349.673 C 106.284 345.138,108.711 344.354,109.438 348.654 L 109.712 350.269 111.588 350.378 L 113.465 350.486 113.465 344.225 L 113.465 337.963 112.351 337.800 C 110.218 337.486,109.619 337.811,109.407 339.395 C 109.175 341.124,108.948 341.388,107.439 341.690 L 106.284 341.921 106.284 338.846 L 106.284 335.771 107.871 335.533 C 112.584 334.826,115.029 336.214,115.808 340.036 C 116.235 342.129,117.093 342.618,119.350 342.053 C 120.053 341.877,120.229 332.672,119.542 331.991 C 119.458 331.908,111.957 331.786,102.873 331.719 L 86.355 331.598 86.247 333.483 C 86.139 335.358,86.144 335.368,87.205 335.368 C 89.386 335.368,89.329 335.179,89.368 342.484 C 89.419 352.049,88.816 353.680,85.231 353.680 C 81.633 353.680,81.055 351.997,81.221 342.011 L 81.329 335.548 82.765 335.368 C 84.173 335.192,84.203 335.158,84.314 333.614 C 84.471 331.419,84.934 331.521,73.583 331.264 C 61.675 330.996,62.118 330.920,62.118 333.214 C 62.118 335.027,62.430 335.368,64.084 335.368 C 65.240 335.368,65.350 335.874,65.350 341.203 L 65.350 345.903 61.615 339.363 C 56.827 330.978,56.915 331.059,52.657 331.059 C 48.833 331.059,48.474 331.265,48.474 333.461 C 48.474 334.979,48.494 335.004,49.910 335.230 L 51.346 335.460 51.346 343.470 C 51.346 352.808,51.236 353.321,49.222 353.321 C 47.377 353.321,48.137 354.788,41.080 337.617 L 38.241 330.709 36.984 330.710 C 35.159 330.712,35.229 330.600,32.155 338.420 C 30.603 342.370,28.607 347.258,27.721 349.282 L 26.109 352.962 24.544 352.962 C 23.684 352.962,22.975 352.841,22.967 352.693 C 22.960 352.545,22.920 348.588,22.878 343.900 C 22.795 334.772,22.749 335.009,24.625 335.009 C 25.427 335.009,25.494 334.872,25.494 333.235 C 25.494 331.070,25.503 331.076,21.775 330.813 C 17.255 330.494,17.158 330.546,15.801 334.018 C 14.427 337.536,12.991 340.754,12.796 340.754 C 12.719 340.754,11.971 339.098,11.133 337.074 C 10.295 335.049,9.302 332.787,8.927 332.047 L 8.244 330.700 4.481 330.700 L 0.718 330.700 0.718 332.855 M130.341 331.777 C 129.946 332.172,129.623 332.674,129.623 332.892 C 129.623 333.110,129.202 334.120,128.688 335.136 C 128.174 336.152,126.388 340.377,124.719 344.524 C 121.148 353.400,120.990 353.680,119.561 353.680 C 118.390 353.680,117.932 356.209,118.923 357.199 C 119.865 358.142,129.216 357.766,129.465 356.776 C 129.978 354.731,129.555 353.875,127.924 353.657 C 125.957 353.395,125.955 353.391,126.760 351.594 L 127.445 350.063 130.905 350.166 L 134.365 350.269 135.004 351.956 L 135.644 353.643 134.159 353.752 L 132.675 353.860 132.675 355.655 L 132.675 357.451 138.779 357.451 L 144.883 357.451 144.883 355.655 C 144.883 353.877,144.871 353.858,143.627 353.680 L 142.370 353.501 138.014 342.569 C 134.940 334.855,133.461 331.560,132.987 331.373 C 131.833 330.920,131.084 331.034,130.341 331.777 M153.112 331.593 C 145.332 334.050,141.737 343.748,145.630 351.778 C 150.239 361.286,164.996 360.053,167.012 349.991 C 167.503 347.541,167.490 347.521,165.206 347.302 L 163.430 347.131 162.974 348.700 C 160.897 355.842,153.077 356.408,151.204 349.551 C 150.697 347.696,150.697 342.386,151.203 340.025 C 152.633 333.358,160.707 333.654,162.297 340.432 C 162.869 342.870,163.191 343.269,164.586 343.262 C 166.696 343.252,166.713 343.196,166.424 337.028 L 166.161 331.418 164.591 331.418 C 163.430 331.418,162.910 331.598,162.589 332.111 C 162.240 332.672,162.019 332.730,161.436 332.419 C 159.082 331.159,155.585 330.812,153.112 331.593 M168.256 332.083 C 167.858 332.727,167.290 342.299,167.630 342.639 C 167.804 342.813,168.634 342.904,169.475 342.842 L 171.005 342.729 171.598 340.365 C 172.293 337.594,173.127 336.183,174.342 335.721 C 176.109 335.049,176.122 335.113,176.122 344.708 L 176.122 353.680 174.441 353.680 C 172.612 353.680,172.423 353.905,172.408 356.100 C 172.397 357.758,172.684 357.821,179.685 357.704 L 185.996 357.598 185.996 355.838 L 185.996 354.079 184.291 353.969 L 182.585 353.860 182.489 344.794 L 182.393 335.727 183.601 335.727 C 185.444 335.727,186.471 337.186,187.224 340.874 L 187.676 343.088 189.260 343.088 L 190.844 343.088 190.754 338.959 C 190.688 335.947,190.766 334.999,191.041 335.458 C 191.280 335.857,191.859 336.086,192.624 336.086 L 193.830 336.086 193.873 343.595 C 193.945 356.060,195.861 358.801,204.132 358.270 C 210.771 357.844,212.387 354.775,211.974 343.377 C 211.692 335.595,211.476 335.924,216.793 336.050 L 218.325 336.086 218.229 344.973 L 218.133 353.860 216.701 353.976 C 215.075 354.109,214.735 354.468,214.727 356.060 C 214.718 357.908,215.130 358.016,221.771 357.908 L 227.828 357.810 227.945 356.779 C 228.192 354.620,227.790 354.039,226.047 354.039 C 224.168 354.039,223.908 353.741,224.360 352.103 C 224.575 351.326,224.573 350.749,224.355 350.531 C 223.616 349.792,224.168 347.047,225.081 346.918 C 227.578 346.565,228.262 347.532,228.938 352.381 C 229.688 357.753,231.464 359.302,235.668 358.255 C 238.208 357.622,240.233 353.503,239.256 350.957 C 238.791 349.743,235.551 350.315,235.521 351.616 C 235.501 352.471,235.281 352.015,234.695 349.910 C 233.869 346.940,233.127 345.422,232.499 345.422 C 232.300 345.421,232.828 345.079,233.672 344.661 C 238.158 342.441,238.104 335.522,233.583 333.223 L 231.798 332.316 218.323 332.316 L 204.847 332.316 204.736 333.466 C 204.568 335.207,205.195 336.086,206.607 336.086 C 208.160 336.086,208.306 337.029,208.028 345.285 C 207.743 353.748,206.839 355.204,202.581 354.058 C 199.845 353.321,199.610 352.474,199.723 343.752 L 199.820 336.266 201.077 336.150 C 202.846 335.988,203.568 334.719,203.005 332.765 C 202.784 331.999,191.023 331.777,191.023 332.539 C 191.023 332.801,190.815 332.770,190.430 332.450 C 189.665 331.815,168.637 331.467,168.256 332.083 M295.412 332.160 C 289.680 333.091,286.715 337.612,286.715 345.422 C 286.715 355.482,292.924 360.928,301.278 358.196 C 302.979 357.640,303.158 357.638,303.550 358.174 C 303.859 358.596,304.417 358.725,305.579 358.642 L 307.181 358.528 307.282 353.970 L 307.382 349.412 308.897 349.302 L 310.413 349.192 310.413 347.397 L 310.413 345.601 304.219 345.503 L 298.025 345.405 298.025 346.957 C 298.025 348.878,298.491 349.372,300.301 349.372 L 301.716 349.372 301.498 351.212 C 300.875 356.474,295.513 356.510,293.657 351.266 C 293.021 349.469,293.028 341.420,293.667 339.578 C 295.640 333.891,301.237 334.713,302.856 340.928 C 303.545 343.574,303.675 343.698,305.607 343.560 L 307.181 343.447 307.086 338.241 C 307.034 335.377,306.918 332.832,306.828 332.585 C 306.593 331.936,303.444 331.991,303.192 332.649 C 303.026 333.081,302.788 333.090,301.677 332.704 C 299.786 332.047,297.391 331.839,295.412 332.160 M241.796 332.637 C 241.690 332.913,241.655 333.761,241.718 334.522 L 241.831 335.907 244.524 336.086 L 247.217 336.266 247.313 345.137 L 247.409 354.009 244.634 354.114 L 241.859 354.219 241.605 355.464 C 241.082 358.031,241.020 358.014,250.555 357.906 L 259.066 357.810 259.176 356.307 C 259.309 354.480,258.726 354.052,256.378 354.254 C 253.289 354.520,253.476 355.130,253.584 345.126 L 253.680 336.266 256.373 336.247 L 259.066 336.228 259.103 334.451 C 259.123 333.474,258.961 332.556,258.744 332.411 C 257.943 331.877,242.006 332.089,241.796 332.637 M262.118 334.269 L 262.118 336.043 263.465 336.154 L 264.811 336.266 264.908 344.625 C 265.011 353.600,264.899 354.279,263.286 354.464 C 262.380 354.569,262.289 354.721,262.188 356.294 L 262.078 358.009 267.215 357.909 L 272.352 357.810 272.462 356.296 C 272.578 354.697,272.550 354.672,270.213 354.321 C 269.040 354.144,268.640 350.112,269.249 344.591 L 269.479 342.504 270.164 343.783 C 270.541 344.487,270.985 345.063,271.152 345.063 C 271.318 345.063,271.454 345.252,271.454 345.483 C 271.454 345.904,277.077 355.869,278.359 357.720 C 278.964 358.592,279.271 358.707,280.994 358.707 L 282.944 358.707 282.952 356.643 C 283.026 335.919,283.007 336.086,285.308 336.086 C 286.182 336.086,286.535 335.468,286.535 333.941 C 286.535 332.582,286.180 332.496,280.581 332.496 L 275.763 332.496 275.763 334.291 C 275.763 335.979,275.818 336.086,276.684 336.086 C 278.882 336.086,278.995 336.365,278.990 341.754 L 278.986 346.679 278.044 345.063 C 277.527 344.174,276.135 341.750,274.952 339.677 C 273.769 337.603,272.242 335.139,271.559 334.201 L 270.316 332.496 266.217 332.496 L 262.118 332.496 262.118 334.269 M325.045 332.887 C 324.550 333.405,324.450 335.301,324.881 335.979 C 325.044 336.234,326.251 336.454,327.838 336.518 L 330.521 336.625 330.445 345.216 C 330.353 355.637,330.645 354.758,327.281 354.758 L 324.557 354.758 324.666 356.463 L 324.776 358.169 333.393 358.169 L 342.011 358.169 342.011 356.553 L 342.011 354.937 339.401 354.832 L 336.792 354.726 336.888 345.675 L 336.984 336.625 339.587 336.519 L 342.190 336.414 342.190 334.634 L 342.190 332.855 338.117 332.855 C 335.877 332.855,332.121 332.756,329.769 332.636 C 326.482 332.467,325.390 332.525,325.045 332.887 M377.917 332.919 C 373.769 334.463,370.402 338.900,369.467 344.052 C 369.071 346.240,369.292 349.731,369.827 349.731 C 369.981 349.731,370.201 350.175,370.316 350.718 C 372.701 362.039,391.132 361.672,392.694 350.273 C 393.066 347.561,389.470 347.292,388.683 349.973 C 386.847 356.222,379.934 357.632,377.419 352.270 C 374.652 346.369,376.846 337.049,381.194 336.234 C 384.690 335.578,387.246 337.885,388.512 342.838 C 388.906 344.379,388.912 344.384,390.414 344.275 L 391.921 344.165 392.021 341.472 C 392.076 339.991,391.995 337.406,391.842 335.727 L 391.562 332.675 390.201 332.563 C 389.163 332.477,388.696 332.630,388.227 333.209 C 387.624 333.952,387.587 333.954,386.355 333.325 C 384.855 332.558,379.570 332.304,377.917 332.919 M345.365 334.022 C 345.138 335.982,345.351 336.342,346.876 336.586 L 348.294 336.813 348.259 344.798 C 348.218 353.792,348.114 354.524,346.843 354.702 C 345.236 354.928,344.485 356.524,345.347 357.880 C 345.572 358.233,351.365 358.525,355.027 358.368 C 355.315 358.355,355.476 357.783,355.476 356.771 C 355.476 355.150,355.123 354.758,353.664 354.758 C 352.494 354.758,352.244 353.561,352.260 348.049 C 352.279 341.741,351.695 341.370,357.739 351.526 L 362.120 358.887 364.094 358.887 L 366.068 358.887 366.248 348.055 C 366.346 342.097,366.508 337.143,366.607 337.045 C 366.706 336.948,367.352 336.723,368.043 336.544 C 369.242 336.235,369.300 336.146,369.300 334.627 L 369.300 333.034 364.273 333.034 L 359.246 333.034 359.139 334.691 L 359.031 336.348 360.446 336.574 C 362.254 336.863,362.298 337.009,362.296 342.669 L 362.294 347.397 361.437 345.980 C 360.965 345.201,360.670 344.326,360.781 344.036 C 360.926 343.660,360.838 343.592,360.474 343.800 C 360.061 344.036,360.049 343.999,360.413 343.607 C 360.660 343.341,360.862 342.914,360.862 342.657 C 360.862 342.059,359.788 342.041,359.774 342.639 C 359.768 342.887,359.598 342.805,359.395 342.457 C 359.193 342.110,359.129 341.661,359.253 341.460 C 359.377 341.260,359.291 341.140,359.062 341.194 C 358.707 341.278,356.578 338.025,354.325 333.959 L 353.714 332.855 349.607 332.855 L 345.500 332.855 345.365 334.022 M229.418 336.540 C 232.529 338.121,230.665 342.083,226.638 342.448 L 224.525 342.639 224.295 341.248 C 223.993 339.421,223.994 336.628,224.297 336.326 C 224.707 335.915,228.501 336.074,229.418 336.540 M359.962 338.603 C 359.648 339.110,360.124 340.450,360.529 340.199 C 360.965 339.930,360.961 338.241,360.524 338.241 C 360.338 338.241,360.085 338.404,359.962 338.603 M37.497 344.614 C 37.738 345.384,37.658 345.422,35.801 345.422 L 33.851 345.422 34.772 342.838 L 35.693 340.254 36.469 342.030 C 36.895 343.007,37.358 344.170,37.497 344.614 M131.942 343.268 C 132.290 344.156,132.655 345.085,132.753 345.332 C 132.883 345.659,132.391 345.781,130.950 345.781 L 128.969 345.781 129.898 343.439 C 130.911 340.887,131.008 340.879,131.942 343.268 M394.418 353.844 C 392.479 355.783,393.626 358.644,396.471 358.964 C 398.663 359.211,399.641 358.320,399.641 356.077 C 399.641 353.172,396.453 351.809,394.418 353.844 " stroke="none" fill="#ffffff" fill-rule="evenodd"></path><path id="path2" d="M84.381 235.916 C 82.504 236.268,80.969 236.581,80.969 236.610 C 80.969 236.640,80.081 236.735,78.995 236.822 C 77.908 236.909,75.889 237.237,74.506 237.550 C 73.124 237.864,71.629 238.109,71.185 238.095 C 70.741 238.081,70.377 238.222,70.377 238.408 C 70.377 238.594,69.810 238.853,69.117 238.983 C 68.231 239.149,67.805 239.447,67.683 239.987 C 67.587 240.409,66.931 243.905,66.224 247.756 C 65.019 254.323,64.605 255.748,64.061 255.204 C 63.938 255.081,64.420 251.848,65.132 248.019 C 65.845 244.191,66.427 240.718,66.427 240.303 L 66.427 239.548 63.226 240.425 C 61.465 240.907,58.931 241.714,57.593 242.217 C 56.256 242.720,54.812 243.044,54.385 242.937 C 53.957 242.830,53.489 242.860,53.345 243.005 C 53.200 243.149,52.974 243.281,52.843 243.299 C 50.670 243.580,44.373 247.234,42.278 249.429 C 39.577 252.258,38.488 253.748,38.777 254.216 C 38.950 254.495,39.037 254.812,38.971 254.920 C 38.905 255.028,37.777 261.014,36.465 268.223 C 35.153 275.431,33.995 281.611,33.891 281.957 C 33.788 282.303,33.858 282.585,34.046 282.585 C 34.500 282.585,47.017 272.037,47.772 271.017 C 47.879 270.872,48.580 267.316,49.329 263.115 C 51.980 248.248,52.563 245.601,53.184 245.601 C 53.584 245.601,53.505 246.122,51.138 259.057 C 50.091 264.780,49.288 269.516,49.355 269.582 C 49.545 269.772,63.914 257.402,63.914 257.048 C 63.914 256.875,64.237 256.732,64.632 256.732 C 65.035 256.732,65.350 256.972,65.350 257.278 C 65.350 257.653,65.603 257.772,66.158 257.659 C 67.839 257.317,76.398 257.141,78.636 257.402 L 80.969 257.674 78.995 257.939 C 77.908 258.085,74.099 258.244,70.528 258.292 L 64.037 258.380 57.243 264.218 C 48.974 271.322,49.179 270.881,54.264 270.609 C 56.510 270.489,62.485 270.288,67.542 270.162 L 76.735 269.933 78.084 267.436 C 78.826 266.062,79.643 264.858,79.899 264.759 C 80.156 264.661,80.464 264.189,80.584 263.712 C 80.704 263.235,81.266 261.833,81.832 260.596 C 83.617 256.705,84.022 255.737,84.022 255.361 C 84.022 255.160,84.257 254.538,84.545 253.979 C 86.026 251.100,90.485 238.069,90.485 236.619 C 90.485 235.058,89.532 234.948,84.381 235.916 M86.161 239.344 C 85.281 240.248,83.793 241.554,82.855 242.248 C 80.684 243.852,80.711 244.155,83.034 244.208 C 88.146 244.323,86.760 245.242,81.474 245.242 L 79.387 245.242 75.331 248.720 C 73.100 250.632,70.514 252.894,69.585 253.747 C 68.089 255.117,66.516 255.832,66.846 254.991 C 66.912 254.823,69.134 252.844,71.784 250.592 C 74.434 248.341,77.076 246.093,77.655 245.596 C 78.450 244.914,78.920 243.945,79.572 241.646 L 80.435 238.600 80.236 240.844 C 79.991 243.600,80.228 243.649,82.697 241.360 C 86.521 237.813,89.136 236.292,86.161 239.344 M36.129 256.411 C 28.585 265.170,24.309 278.106,26.686 284.981 C 27.664 287.809,27.949 287.888,30.280 285.969 C 32.692 283.983,32.110 285.953,35.185 269.350 C 38.030 253.986,38.013 254.224,36.129 256.411 M57.896 271.489 L 48.466 271.770 44.961 274.754 C 33.208 284.758,33.732 284.110,37.612 283.858 C 43.059 283.504,57.309 283.342,59.605 283.608 L 61.939 283.878 58.348 284.148 C 56.373 284.296,49.873 284.557,43.902 284.727 L 33.047 285.036 30.906 286.414 C 24.483 290.547,36.303 294.763,47.032 292.166 C 51.867 290.995,62.603 286.146,63.839 284.573 C 64.233 284.072,64.750 283.662,64.988 283.662 C 66.186 283.662,75.763 272.778,75.763 271.416 C 75.763 271.058,71.808 271.075,57.896 271.489 " stroke="none" fill="#059c5c" fill-rule="evenodd"></path></g></svg>